PathFileType	4	(X/Y/Z)	7_coords_data.trc
DataRate	CameraRate	NumFrames	NumMarkers	Units	OrigDataRate	OrigDataStartFrame	OrigNumFrames
30.0	30.0	9	21	m	30.0	52	62
Frame#	Time	THUMB_TIP	THUMB_IP	THUMB_MCP	THUMB_CMC	INDEX_TIP	INDEX_DIP	INDEX_PIP	INDEX_MCP	MIDDLE_TIP	MIDDLE_DIP	MIDDLE_PIP	MIDDLE_MCP	RING_TIP	RING_DIP	RING_PIP	RING_MCP	PINKY_TIP	PINKY_DIP	PINKY_PIP	PINKY_MCP	WRIST
X1	Y1	Z1	X2	Y2	Z2	X3	Y3	Z3	X4	Y4	Z4	X5	Y5	Z5	X6	Y6	Z6	X7	Y7	Z7	X8	Y8	Z8	X9	Y9	Z9	X10	Y10	Z10	X11	Y11	Z11	X12	Y12	Z12	X13	Y13	Z13	X14	Y14	Z14	X15	Y15	Z15	X16	Y16	Z16	X17	Y17	Z17	X18	Y18	Z18	X19	Y19	Z19	X20	Y20	Z20	X21	Y21	Z21
51	1.7	-0.030139400482177735	-0.06702619934082031	0.9946019897460937	-0.027950199127197265	-0.04577849960327148	1.009989990234375	-0.03595790100097656	-0.030186899185180666	1.0334100341796875	-0.039705299377441404	0.00012267699837684601	1.0503499755859376	0.008048379898071289	-0.013082500457763671	0.9413280029296875	-0.012403599739074707	-0.0128016996383667	0.9453480224609375	-0.03131189918518067	-0.012131999969482422	0.956301025390625	-0.04204460144042969	-0.008112059593200684	0.9919010009765625	0.012595499992370605	0.02248789978027344	0.92439501953125	-0.00845359992980957	0.022407499313354493	0.934208984375	-0.02989459991455078	0.020211299896240233	0.9510150146484375	-0.044382701873779296	0.015472599983215332	0.9873829956054687	0.011029500007629395	0.043039798736572266	0.932739990234375	-0.00720950984954834	0.04328910064697265	0.9452869873046875	-0.026087499618530272	0.04167559814453125	0.9621950073242187	-0.041762199401855465	0.035420398712158206	0.992989990234375	0.004052949905395508	0.07228019714355469	0.9632160034179688	-0.010911800384521485	0.0682573013305664	0.9727080078125	-0.023143800735473632	0.0629384994506836	0.9831790161132813	-0.03518460083007813	0.05209569931030274	1.003	-0.06022129821777344	0.026278900146484374	1.0634100341796875
52	1.7333333333333334	-0.026198200225830078	-0.06679199981689453	0.995844970703125	-0.02559510040283203	-0.04557229995727539	1.0113599853515625	-0.03488219833374023	-0.02996120071411133	1.0344100341796876	-0.039231300354003906	0.000378802001476287	1.0511500244140626	0.003885580062866211	-0.01475879955291748	0.9351170043945313	-0.015716899871826173	-0.013765600204467774	0.9429290161132813	-0.03300680160522461	-0.012439299583435058	0.95660498046875	-0.041359798431396484	-0.008013640403747559	0.9924910278320312	0.0057534499168396	0.02322559928894043	0.9167009887695312	-0.0131628999710083	0.02252989959716797	0.9309929809570312	-0.03173460006713867	0.019910900115966797	0.9511229858398438	-0.043404800415039066	0.015281100273132325	0.98797900390625	0.006223299980163574	0.04373440170288086	0.9279310302734375	-0.010201800346374511	0.04331859970092773	0.9432650146484375	-0.02700270080566406	0.04142390060424805	0.9620859985351562	-0.040222900390625	0.035175498962402345	0.9936690063476562	0.002628390073776245	0.07369080352783203	0.9607899780273438	-0.01117829990386963	0.06868099975585938	0.9721279907226562	-0.02238010025024414	0.06285689926147461	0.9834130249023437	-0.03355599975585938	0.05169620132446289	1.0036799926757813	-0.05956710052490234	0.02648040008544922	1.0640799560546874
53	1.7666666666666666	-0.02266510009765625	-0.06635050201416015	0.9971370239257813	-0.02364590072631836	-0.045115898132324216	1.0128300170898437	-0.03411989974975586	-0.02958880043029785	1.0355699462890624	-0.038622100830078124	0.000791343986988067	1.0517900390625	-0.0007894129753112791	-0.0173218994140625	0.931885009765625	-0.019387399673461914	-0.015684200286865235	0.942031005859375	-0.035298999786376954	-0.013570899963378907	0.9573480224609375	-0.04182040023803711	-0.00826554012298584	0.9933519897460937	0.00019634099304676	0.021724599838256836	0.9127830200195313	-0.01686669921875	0.021014900207519532	0.9294619750976563	-0.033736099243164064	0.018745500564575194	0.9512949829101562	-0.04345449829101562	0.014834099769592286	0.988551025390625	0.003429409980773926	0.04147470092773437	0.9257830200195313	-0.011961999893188477	0.04142279815673828	0.9422750244140625	-0.027583799362182616	0.04000759887695313	0.9620800170898437	-0.03954750061035156	0.03465290069580078	0.9939929809570313	0.003837389945983886	0.0715531997680664	0.9601079711914062	-0.009986209869384765	0.06702529907226562	0.9718419799804687	-0.021152200698852538	0.06169010162353516	0.9832780151367188	-0.03247579956054687	0.051123500823974606	1.0037100219726562	-0.05857709884643555	0.027010099411010742	1.0646300048828126
54	1.8	-0.019368200302124022	-0.06476509857177734	0.9970029907226563	-0.022127099990844726	-0.04399760055541992	1.0130800170898437	-0.033362598419189454	-0.029042200088500978	1.03606005859375	-0.038192798614501956	0.0011775499582290648	1.0523399658203125	-0.003184390068054199	-0.01837779998779297	0.9305050048828125	-0.021230400085449217	-0.016478500366210937	0.941823974609375	-0.03648139953613281	-0.014139399528503419	0.957864013671875	-0.042268001556396484	-0.008489500045776368	0.9939849853515625	-0.002884390115737915	0.02032550048828125	0.9112559814453125	-0.018938899993896485	0.019781200408935547	0.9288900146484375	-0.034963199615478516	0.01785219955444336	0.951573974609375	-0.043950698852539063	0.014557900428771973	0.9891500244140625	0.0033263399600982663	0.039342098236083985	0.92572900390625	-0.011980999946594238	0.03974100112915039	0.94222998046875	-0.027604499816894532	0.038904701232910156	0.9620819702148438	-0.03950210189819336	0.03426739883422852	0.9941220092773437	0.005438290119171143	0.06916580200195313	0.9605609741210938	-0.008721590042114258	0.06549459838867187	0.971906005859375	-0.02025469970703125	0.06070280075073242	0.9832769775390625	-0.03226169967651367	0.05081800079345703	1.0037999877929686	-0.05813539886474609	0.02745400047302246	1.0650999755859376
55	1.8333333333333333	-0.015623900413513183	-0.06286660003662109	0.996489990234375	-0.020169300079345705	-0.042697601318359375	1.013030029296875	-0.03260110092163086	-0.028508899688720703	1.03606005859375	-0.038041900634765625	0.001423920035362243	1.05231005859375	-0.004993690013885498	-0.01797960090637207	0.9286840209960937	-0.022589599609375	-0.016023399353027344	0.94097802734375	-0.03719110107421875	-0.013717599868774414	0.9577100219726562	-0.042524398803710936	-0.00825570011138916	0.9937420043945312	-0.004999080181121826	0.021351800918579102	0.9099749755859375	-0.020332799911499024	0.020523799896240234	0.9283610229492187	-0.03562179946899414	0.018343399047851563	0.9515070190429687	-0.04412250137329102	0.014786600112915039	0.9891900024414062	0.0025361099243164063	0.03972209930419922	0.9254739990234375	-0.01254319953918457	0.04008110046386719	0.942083984375	-0.027963300704956055	0.0392130012512207	0.9620369873046875	-0.0395984001159668	0.03447510147094727	0.9941510009765625	0.006169099807739258	0.06876249694824219	0.9610659790039062	-0.008165459632873535	0.0653134994506836	0.972177978515625	-0.019899499893188476	0.0606707992553711	0.9834299926757812	-0.03219029998779297	0.05091899871826172	1.003739990234375	-0.05801409912109375	0.027489099502563476	1.0651099853515624
56	1.8666666666666667	-0.012738200187683105	-0.06094070053100586	0.9956719970703125	-0.018750200271606444	-0.041507301330566404	1.01272998046875	-0.032180500030517575	-0.028100500106811522	1.0357099609375	-0.038177799224853516	0.001510540008544921	1.051949951171875	-0.005577869892120361	-0.017279699325561525	0.9274450073242188	-0.022869199752807618	-0.015451800346374512	0.940343017578125	-0.037095901489257815	-0.013272000312805175	0.957427978515625	-0.04267770004272461	-0.00807433032989502	0.9933900146484375	-0.005816199779510498	0.022104299545288086	0.9091959838867187	-0.020757999420166016	0.020982999801635743	0.927948974609375	-0.035756401062011715	0.018626699447631834	0.9512319946289063	-0.04442800140380859	0.014931599617004394	0.988823974609375	0.0023550000190734857	0.039970298767089844	0.9253800048828125	-0.012724900245666504	0.04031790161132812	0.9418870239257813	-0.028124300003051758	0.03942129898071289	0.9617969970703125	-0.03996229934692383	0.03461330032348633	0.993916015625	0.006241980075836181	0.06874720001220704	0.9612069702148438	-0.008178979873657226	0.06536990356445313	0.9722760009765625	-0.020059000015258788	0.060789299011230466	0.9834089965820313	-0.03265079879760742	0.0510989990234375	1.0036199951171876	-0.05828219985961914	0.027451799392700194	1.06477001953125
57	1.9	-0.010413100242614746	-0.059181900024414064	0.99502001953125	-0.0179153995513916	-0.04057770156860351	1.0123900146484375	-0.032220298767089844	-0.027959800720214843	1.0353199462890625	-0.038723800659179686	0.001385929942131042	1.0516199951171874	-0.005465579986572266	-0.016938400268554688	0.9270609741210938	-0.022822599411010742	-0.01515410041809082	0.9400549926757813	-0.03714039993286133	-0.013070199966430664	0.957156005859375	-0.04312110137939453	-0.008160599708557129	0.9929959716796875	-0.005322770118713379	0.022255599975585936	0.9092440185546875	-0.020400999069213867	0.021138500213623047	0.9279420166015625	-0.035600399017333986	0.018712299346923828	0.9510869750976563	-0.04480099868774414	0.01493939971923828	0.9886160278320313	0.003248460054397583	0.03968170166015625	0.9258569946289062	-0.012103500366210938	0.04015760040283203	0.9421010131835937	-0.027979400634765624	0.03934709930419922	0.961801025390625	-0.04036280059814453	0.03454930114746094	0.9937739868164063	0.0069564499855041505	0.06792549896240234	0.9617979736328125	-0.007711209774017334	0.06484860229492187	0.9725230102539062	-0.019895599365234374	0.06045529937744141	0.98352001953125	-0.033018699645996095	0.05098189926147461	1.00352001953125	-0.05883890151977539	0.027296300888061523	1.06452001953125
58	1.9333333333333333	-0.009315179824829102	-0.05797420120239258	0.994302001953125	-0.017774799346923827	-0.040055500030517575	1.011989990234375	-0.03242839813232422	-0.027936599731445313	1.035030029296875	-0.03905089950561524	0.0011705299615859981	1.05152001953125	-0.005878089904785156	-0.016698299407958986	0.926802978515625	-0.023199600219726564	-0.014967900276184082	0.939823974609375	-0.037535900115966796	-0.01297070026397705	0.9569550170898438	-0.04361069869995117	-0.008206890106201173	0.9928060302734375	-0.0065981998443603515	0.02237100028991699	0.9086909790039063	-0.02137120056152344	0.02119569969177246	0.9276389770507812	-0.03632649993896484	0.018743799209594725	0.9509600219726563	-0.04520660018920898	0.01489840030670166	0.9885250244140625	0.0034998199939727777	0.039524101257324216	0.926281982421875	-0.012016200065612792	0.039971599578857424	0.9422940063476563	-0.02800349998474121	0.039212398529052735	0.9618359985351562	-0.04063219833374023	0.034406700134277345	0.9936840209960938	0.007857759952545167	0.06679149627685547	0.962468994140625	-0.007124690055847168	0.06390650177001952	0.9729130249023438	-0.019523099899291994	0.05980590057373047	0.9837429809570313	-0.03319049835205078	0.05073130035400391	1.0035999755859375	-0.059126300811767576	0.027043500900268556	1.06456005859375
59	1.9666666666666666	-0.008106069564819336	-0.05654380035400391	0.99364501953125	-0.017387800216674805	-0.03924269866943359	1.0116300048828124	-0.03229059982299805	-0.02771229934692383	1.0348299560546874	-0.03918679809570313	0.001149999976158142	1.0514200439453125	-0.006200940132141113	-0.016518999099731445	0.9268670043945313	-0.023612600326538086	-0.014888400077819825	0.9397730102539062	-0.038048500061035155	-0.012981699943542481	0.95689599609375	-0.044234298706054685	-0.008377880096435546	0.9926929931640625	-0.0071996297836303715	0.022205299377441406	0.9087490234375	-0.022004199981689454	0.02100709915161133	0.9276110229492187	-0.03696129989624024	0.0186018009185791	0.9508259887695313	-0.045795299530029296	0.01473740005493164	0.98852197265625	0.003619920015335083	0.039268299102783205	0.9266859741210938	-0.012065999984741211	0.03975040054321289	0.942510986328125	-0.02828879928588867	0.03906470108032226	0.9618610229492187	-0.04125740051269531	0.034190101623535155	0.9936749877929687	0.007662220001220703	0.0653772964477539	0.9622579956054688	-0.007459239959716797	0.0629197006225586	0.9727069702148438	-0.019980899810791014	0.05912590026855469	0.9835800170898438	-0.0338224983215332	0.05055670166015625	1.0036400146484374	-0.059341400146484376	0.026896600723266603	1.064510009765625
